HIERARCHY
ROOT Hip
{
	OFFSET 0 1.131 0.0052
	CHANNELS 6 Xposition Yposition Zposition Xrotation Yrotation Zrotation
	JOINT Abdomen
	{
		OFFSET 0 -0.047353 -0.05
		CHANNELS 3 Xrotation Zrotation Yrotation
		JOINT Chest
		{
			OFFSET 0 0.132153 0.007439
			CHANNELS 3 Xrotation Zrotation Yrotation
			JOINT Neck
			{
				OFFSET 0 0.3078 0.006161
				CHANNELS 3 Xrotation Zrotation Yrotation
				JOINT Head_comp
				{
					OFFSET 0 0.0884 0.013
					CHANNELS 3 Xrotation Yrotation Zrotation
					End Site
					{
						OFFSET -0 0.156 0.0624
					}
				}
			}
			JOINT Left_Collar
			{
				OFFSET 0.02282 0.250342 0.017193
				CHANNELS 2 Yrotation Zrotation
				JOINT Left_Shoulder
				{
					OFFSET 0.15421 0 0
					CHANNELS 3 Xrotation Yrotation Zrotation
					JOINT Left_Forearm
					{
						OFFSET 0.265212 0 0
						CHANNELS 2 Yrotation Xrotation
						JOINT Left_Hand
						{
							OFFSET 0.27571 0 0
							CHANNELS 2 Zrotation Yrotation
							JOINT L1ProxPhalanx
							{
								OFFSET 0.014142 0.001733 0.014142
								CHANNELS 3 Yrotation Zrotation Xrotation
								JOINT L1MidPhalanx
								{
									OFFSET 0.04 0 0
									CHANNELS 1 Zrotation
									JOINT L1DistPhalanx
									{
										OFFSET 0.035 0 0
										CHANNELS 1 Zrotation
										End Site
										{
											OFFSET 0.029 -0 -0
										}
									}
								}
							}
							JOINT L2ProxPhalanx
							{
								OFFSET 0.0821037 0.001578 0.0219996
								CHANNELS 2 Yrotation Zrotation
								JOINT L2MidPhalanx
								{
									OFFSET 0.04 0 0
									CHANNELS 1 Zrotation
									JOINT L2DistPhalanx
									{
										OFFSET 0.028 0 0
										CHANNELS 1 Zrotation
										End Site
										{
											OFFSET 0.02 -0 -0
										}
									}
								}
							}
							JOINT L3ProxPhalanx
							{
								OFFSET 0.083 0 0
								CHANNELS 2 Yrotation Zrotation
								JOINT L3MidPhalanx
								{
									OFFSET 0.053 0 0
									CHANNELS 1 Zrotation
									JOINT L3DistPhalanx
									{
										OFFSET 0.03 0 0
										CHANNELS 1 Zrotation
										End Site
										{
											OFFSET 0.023 -0 -0
										}
									}
								}
							}
							JOINT L4ProxPhalanx
							{
								OFFSET 0.077274 -0.000761 -0.0207055
								CHANNELS 2 Yrotation Zrotation
								JOINT L4MidPhalanx
								{
									OFFSET 0.05 0 0
									CHANNELS 1 Zrotation
									JOINT L4DistPhalanx
									{
										OFFSET 0.03 0 0
										CHANNELS 1 Zrotation
										End Site
										{
											OFFSET 0.023 -0 -0
										}
									}
								}
							}
							JOINT L5ProxPhalanx
							{
								OFFSET 0.0675499 -0.001644 -0.039
								CHANNELS 2 Yrotation Zrotation
								JOINT L5MidPhalanx
								{
									OFFSET 0.04 0 0
									CHANNELS 1 Zrotation
									JOINT L5DistPhalanx
									{
										OFFSET 0.021 0 0
										CHANNELS 1 Zrotation
										End Site
										{
											OFFSET 0.022 -0 -0
										}
									}
								}
							}
						}
					}
				}
			}
			JOINT Right_Collar
			{
				OFFSET -0.02282 0.250342 0.017193
				CHANNELS 2 Yrotation Zrotation
				JOINT Right_Shoulder
				{
					OFFSET -0.15421 0 0
					CHANNELS 3 Xrotation Yrotation Zrotation
					JOINT Right_Forearm
					{
						OFFSET -0.265212 0 0
						CHANNELS 2 Yrotation Xrotation
						JOINT Right_Hand
						{
							OFFSET -0.27571 3e-006 0
							CHANNELS 2 Zrotation Yrotation
							JOINT R1ProxPhalanx
							{
								OFFSET -0.014142 0.001733 0.014142
								CHANNELS 3 Yrotation Zrotation Xrotation
								JOINT R1MidPhalanx
								{
									OFFSET -0.04 0 0
									CHANNELS 1 Zrotation
									JOINT R1DistPhalanx
									{
										OFFSET -0.035 0 0
										CHANNELS 1 Zrotation
										End Site
										{
											OFFSET -0.029 -0 -0
										}
									}
								}
							}
							JOINT R2ProxPhalanx
							{
								OFFSET -0.0821037 0.001578 0.0219996
								CHANNELS 2 Yrotation Zrotation
								JOINT R2MidPhalanx
								{
									OFFSET -0.04 0 0
									CHANNELS 1 Zrotation
									JOINT R2DistPhalanx
									{
										OFFSET -0.028 0 0
										CHANNELS 1 Zrotation
										End Site
										{
											OFFSET -0.02 -0 -0
										}
									}
								}
							}
							JOINT R3ProxPhalanx
							{
								OFFSET -0.083 0 0
								CHANNELS 2 Yrotation Zrotation
								JOINT R3MidPhalanx
								{
									OFFSET -0.053 0 0
									CHANNELS 1 Zrotation
									JOINT R3DistPhalanx
									{
										OFFSET -0.03 0 0
										CHANNELS 1 Zrotation
										End Site
										{
											OFFSET -0.023 -0 -0
										}
									}
								}
							}
							JOINT R4ProxPhalanx
							{
								OFFSET -0.077274 -0.000761 -0.0207055
								CHANNELS 2 Yrotation Zrotation
								JOINT R4MidPhalanx
								{
									OFFSET -0.05 0 0
									CHANNELS 1 Zrotation
									JOINT R4DistPhalanx
									{
										OFFSET -0.03 0 0
										CHANNELS 1 Zrotation
										End Site
										{
											OFFSET -0.023 -0 -0
										}
									}
								}
							}
							JOINT R5ProxPhalanx
							{
								OFFSET -0.0675499 -0.001644 -0.039
								CHANNELS 2 Yrotation Zrotation
								JOINT R5MidPhalanx
								{
									OFFSET -0.04 0 0
									CHANNELS 1 Zrotation
									JOINT R5DistPhalanx
									{
										OFFSET -0.021 0 0
										CHANNELS 1 Zrotation
										End Site
										{
											OFFSET -0.022 -0 -0
										}
									}
								}
							}
						}
					}
				}
			}
		}
	}
	JOINT Left_Thigh
	{
		OFFSET 0.1118 -0.1612 -0.0442
		CHANNELS 3 Xrotation Zrotation Yrotation
		JOINT Left_Shin
		{
			OFFSET 0 -0.477856 0
			CHANNELS 1 Xrotation
			JOINT Left_Foot
			{
				OFFSET 0 -0.431952 0
				CHANNELS 2 Xrotation Zrotation
				JOINT Left_Toe
				{
					OFFSET 0 -0.0442 0.119
					CHANNELS 1 Xrotation
					End Site
					{
						OFFSET -0 -0 0.07
					}
				}
			}
		}
	}
	JOINT Right_Thigh
	{
		OFFSET -0.1118 -0.1612 -0.0442
		CHANNELS 3 Xrotation Zrotation Yrotation
		JOINT Right_Shin
		{
			OFFSET 0 -0.477856 0
			CHANNELS 1 Xrotation
			JOINT Right_Foot
			{
				OFFSET 0 -0.431952 0
				CHANNELS 2 Xrotation Zrotation
				JOINT Right_Toe
				{
					OFFSET 0 -0.0442 0.119
					CHANNELS 1 Xrotation
					End Site
					{
						OFFSET -0 -0 0.07
					}
				}
			}
		}
	}
}
MOTION
Frames: 12
Frame Time: 0.009975
-0.101738 -0.0600608 0.0438978 -1.14284e-012 2.67499e-008 -5.10957e-006 0 -0 0 0 -0 0 0 -0 0 -0.712309 0.291665 -1.13941e-011 -7.2729 -23.0508 -31.6949 -17.4824 -42.2799 -30.1631 0.557717 43.7642 5.60931 -51.4634 -63.4809 99.3377 -5.75439 -4.49302 7.95993 0.675575 -16.6221 -24.6458 7.46157 1.81719 0.691732 -1.76523 2.43645 2.90146 -6.29669 2.78985 3.1299 5.69411 -58.409 50.667 2.49678 10.0484 16.931 3.81026 54.8729 82.7441 -0.0172332 -13.8792 -1.75924 39.9124 34.5366 79.9711 22.4087 23.8217 8.93453 14.6603 26.7796 20.4062 -1.64014 17.851 26.3693 23.2235 -7.64116 24.3391 27.4223 18.7873 -7.33851 20.573 39.434 15.13 0.297056 -0.633678 -0.00328516 0.0240216 -0.32106 0.633692 0 0.308462 -0.633678 -0.0034113 0 -0.308443 0.633692 0 
-0.101825 -0.0600614 0.0441668 8.3807e-013 2.82747e-008 -5.10955e-006 0 -0 0 0 -0 0 0 -0 0 -0.71233 0.291918 -1.17097e-011 -7.2729 -23.0508 -31.6949 -17.4824 -42.2799 -30.1631 0.557717 43.7642 5.60931 -51.4634 -63.4809 99.3377 -5.75439 -4.49302 7.95993 0.675575 -16.6221 -24.6458 7.46157 1.81719 0.691732 -1.76523 2.43645 2.90146 -6.29669 2.78985 3.1299 5.69411 -58.409 50.667 2.32459 9.62267 18.1487 4.17835 55.678 83.1394 -0.0160448 -12.922 -1.63792 39.7053 33.8513 79.3125 22.8109 24.3073 9.37368 15.0336 27.0153 20.3253 -1.46797 18.3323 27.0248 23.738 -7.74514 25.0073 27.9244 19.3097 -7.3902 21.2199 38.9846 16.693 0.313999 -0.628201 -0.00344254 0.0240216 -0.338002 0.628216 0 0.325405 -0.6282 -0.00356758 8.45236e-007 -0.325386 0.628216 0 
-0.101914 -0.0600619 0.0444321 2.60901e-012 2.97792e-008 -5.10954e-006 0 -0 0 0 -0 0 0 -0 0 -0.71235 0.29218 -1.19833e-011 -7.2729 -23.0508 -31.6949 -17.4824 -42.2799 -30.1631 0.557717 43.7642 5.60931 -51.4634 -63.4809 99.3377 -5.75439 -4.49302 7.95993 0.675575 -16.6221 -24.6458 7.46157 1.81719 0.691732 -1.76523 2.43645 2.90146 -6.29669 2.78985 3.1299 5.69411 -58.409 50.667 2.15317 9.19903 19.3259 4.57831 56.4868 83.4718 -0.0148615 -11.9691 -1.51713 39.4982 33.1659 78.654 23.2132 24.7928 9.81283 15.4069 27.251 20.2445 -1.2958 18.8135 27.6804 24.2524 -7.84913 25.6756 28.4264 19.832 -7.44188 21.8668 38.5352 18.256 0.330705 -0.622554 -0.00359311 0.0240216 -0.354707 0.622569 0 0.34211 -0.622553 -0.00371702 2.26117e-006 -0.342092 0.622569 0 
-0.102007 -0.0600625 0.0446932 9.71736e-013 3.12614e-008 -5.10953e-006 0 -0 0 0 -0 0 0 -0 0 -0.712371 0.29245 -1.22082e-011 -7.2729 -23.0508 -31.6949 -17.4824 -42.2799 -30.1631 0.557717 43.7642 5.60931 -51.4634 -63.4809 99.3377 -5.75439 -4.49302 7.95993 0.675575 -16.6221 -24.6458 7.46157 1.81719 0.691732 -1.76523 2.43645 2.90146 -6.29669 2.78985 3.1299 5.69411 -58.409 50.667 1.98281 8.7782 20.4595 5.00642 57.2978 83.742 -0.0136857 -11.0221 -1.3971 39.2911 32.4806 77.9955 23.6154 25.2784 10.252 15.7803 27.4867 20.1636 -1.12363 19.2948 28.336 24.7669 -7.95312 26.3438 28.9285 20.3544 -7.49357 22.5137 38.0857 19.8189 0.347148 -0.616747 -0.00373659 0.0240216 -0.37115 0.616763 0 0.358553 -0.616746 -0.00385935 2.28084e-006 -0.358534 0.616763 0 
-0.102101 -0.0600632 0.0449496 1.28134e-013 3.27188e-008 -5.10951e-006 0 -0 0 0 -0 0 0 -0 0 -0.712391 0.292727 -1.23782e-011 -7.2729 -23.0508 -31.6949 -17.4824 -42.2799 -30.1631 0.557717 43.7642 5.60931 -51.4634 -63.4809 99.3377 -5.75439 -4.49302 7.95993 0.675575 -16.6221 -24.6458 7.46157 1.81719 0.691732 -1.76523 2.43645 2.90146 -6.29669 2.78985 3.1299 5.69411 -58.409 50.667 1.81386 8.361 21.5467 5.45861 58.1096 83.9512 -0.0125196 -10.0829 -1.27805 39.0841 31.7952 77.337 24.0176 25.7639 10.6911 16.1536 27.7224 20.0827 -0.951464 19.7761 28.9916 25.2814 -8.0571 27.0121 29.4306 20.8767 -7.54525 23.1605 37.6363 21.3819 0.363302 -0.610792 -0.00387272 0.0240216 -0.387303 0.61081 0 0.374707 -0.610792 -0.0039943 1.70755e-006 -0.374688 0.61081 0 
-0.102198 -0.0600638 0.0452011 1.44026e-013 3.4149e-008 -5.1095e-006 0 -0 0 0 -0 0 0 -0 0 -0.712411 0.293012 -1.24846e-011 -7.2729 -23.0508 -31.6949 -17.4824 -42.2799 -30.1631 0.557717 43.7642 5.60931 -51.4634 -63.4809 99.3377 -5.75439 -4.49302 7.95993 0.675575 -16.6221 -24.6458 7.46157 1.81719 0.691732 -1.76523 2.43645 2.90146 -6.29669 2.78985 3.1299 5.69411 -58.409 50.667 1.64669 7.94834 22.5847 5.9305 58.9207 84.101 -0.0113657 -9.15364 -1.16026 38.877 31.1099 76.6785 24.4199 26.2494 11.1303 16.5269 27.958 20.0019 -0.779295 20.2574 29.6472 25.7959 -8.16109 27.6803 29.9327 21.3991 -7.59694 23.8074 37.1869 22.9449 0.379136 -0.604706 -0.00400125 0.0240216 -0.403137 0.604724 0 0.390542 -0.604705 -0.00412162 2.41484e-006 -0.390522 0.604724 0 
-0.102296 -0.0600645 0.0454469 5.73166e-013 3.55491e-008 -5.10948e-006 0 -0 0 0 -0 0 0 -0 0 -0.712431 0.293302 -1.25184e-011 -7.2729 -23.0508 -31.6949 -17.4824 -42.2799 -30.1631 0.557717 43.7642 5.60931 -51.4634 -63.4809 99.3377 -5.75439 -4.49302 7.95993 0.675575 -16.6221 -24.6458 7.46157 1.81719 0.691732 -1.76523 2.43645 2.90146 -6.29669 2.78985 3.1299 5.69411 -58.409 50.667 1.48172 7.54125 23.5709 6.41744 59.7293 84.1934 -0.0102271 -8.2366 -1.04402 38.6699 30.4245 76.0199 24.8221 26.735 11.5694 16.9003 28.1937 19.921 -0.607125 20.7386 30.3028 26.3103 -8.26507 28.3486 30.4348 21.9214 -7.64862 24.4543 36.7374 24.5078 0.394619 -0.598505 -0.00412196 0.0240216 -0.418619 0.598524 0 0.406025 -0.598504 -0.0042411 2.41484e-006 -0.406004 0.598524 0 
-0.102396 -0.0600652 0.0456866 6.8139e-013 3.69162e-008 -5.10947e-006 0 -0 0 0 -0 0 0 -0 0 -0.71245 0.293598 -1.24688e-011 -7.2729 -23.0508 -31.6949 -17.4824 -42.2799 -30.1631 0.557717 43.7642 5.60931 -51.4634 -63.4809 99.3377 -5.75439 -4.49302 7.95993 0.675575 -16.6221 -24.6458 7.46157 1.81719 0.691732 -1.76523 2.43645 2.90146 -6.29669 2.78985 3.1299 5.69411 -58.409 50.667 1.31943 7.14091 24.5031 6.91445 60.5334 84.2309 -0.00910697 -7.3345 -0.929678 38.4628 29.7392 75.3614 25.2243 27.2205 12.0086 17.2736 28.4294 19.8402 -0.434955 21.2199 30.9584 26.8248 -8.36906 29.0169 30.9369 22.4438 -7.70031 25.1012 36.288 26.0708 0.409714 -0.592213 -0.00423466 0.0240216 -0.433714 0.592233 0 0.421119 -0.592212 -0.00435254 1.70755e-006 -0.421099 0.592233 0 
-0.102497 -0.0600659 0.0459195 -1.03128e-012 3.82466e-008 -5.10945e-006 0 -0 0 0 -0 0 0 -0 0 -0.712469 0.293898 -1.23244e-011 -7.2729 -23.0508 -31.6949 -17.4824 -42.2799 -30.1631 0.557717 43.7642 5.60931 -51.4634 -63.4809 99.3377 -5.75439 -4.49302 7.95993 0.675575 -16.6221 -24.6458 7.46157 1.81719 0.691732 -1.76523 2.43645 2.90146 -6.29669 2.78985 3.1299 5.69411 -58.409 50.667 1.1604 6.74869 25.3791 7.41632 61.3303 84.2166 -0.00800926 -6.45044 -0.81762 38.2557 29.0538 74.7029 25.6266 27.7061 12.4477 17.6469 28.6651 19.7593 -0.262785 21.7012 31.614 27.3393 -8.47304 29.6851 31.4389 22.9661 -7.75199 25.7481 35.8386 27.6337 0.42438 -0.585858 -0.00433918 0.0240216 -0.448379 0.585879 0 0.435785 -0.585857 -0.0044558 2.41484e-006 -0.435764 0.585879 0 
-0.102599 -0.0600666 0.0461447 -2.33623e-013 3.95365e-008 -5.10944e-006 0 -0 0 0 -0 0 0 -0 0 -0.712487 0.294201 -1.20708e-011 -7.2729 -23.0508 -31.6949 -17.4824 -42.2799 -30.1631 0.557717 43.7642 5.60931 -51.4634 -63.4809 99.3377 -5.75439 -4.49302 7.95993 0.675575 -16.6221 -24.6458 7.46157 1.81719 0.691732 -1.76523 2.43645 2.90146 -6.29669 2.78985 3.1299 5.69411 -58.409 50.667 1.00526 6.36618 26.197 7.91751 62.1169 84.1543 -0.00693845 -5.58804 -0.708307 38.0486 28.3685 74.0444 26.0288 28.1916 12.8869 18.0202 28.9008 19.6784 -0.0906158 22.1824 32.2696 27.8538 -8.57703 30.3534 31.941 23.4885 -7.80368 26.3949 35.3891 29.1967 0.438567 -0.579472 -0.00443539 0.0240216 -0.462566 0.579494 0 0.449972 -0.579471 -0.00455073 2.24149e-006 -0.449951 0.579494 0 
-0.1027 -0.0600673 0.0463615 -2.55881e-013 4.07812e-008 -5.10942e-006 0 -0 0 0 -0 0 0 -0 0 -0.712505 0.294505 -1.16928e-011 -7.2729 -23.0508 -31.6949 -17.4824 -42.2799 -30.1631 0.557717 43.7642 5.60931 -51.4634 -63.4809 99.3377 -5.75439 -4.49302 7.95993 0.675575 -16.6221 -24.6458 7.46157 1.81719 0.691732 -1.76523 2.43645 2.90146 -6.29669 2.78985 3.1299 5.69411 -58.409 50.667 0.854788 5.99526 26.9551 8.41218 62.8891 84.0485 -0.0058999 -4.75161 -0.602287 37.9386 28.008 73.698 26.2405 28.4472 13.118 18.2167 29.0248 19.6359 0 22.4358 32.6146 28.1246 -8.63175 30.7051 32.2053 23.7634 -7.83088 26.7354 35.1526 30.0193 0.452221 -0.573099 -0.00452319 0.0240216 -0.47622 0.573122 0 0.463625 -0.573098 -0.00463726 2.83165e-006 -0.463605 0.573122 0 
-0.1028 -0.060068 0.0465687 9.87424e-013 4.25086e-008 -5.1094e-006 0 -0 0 0 -0 0 0 -0 0 -0.712522 0.29481 -1.11561e-011 -7.2729 -23.0508 -31.6949 -17.4824 -42.2799 -30.1631 0.557717 43.7642 5.60931 -51.4634 -63.4809 99.3377 -5.75439 -4.49302 7.95993 0.675575 -16.6221 -24.6458 7.46157 1.81719 0.691732 -1.76523 2.43645 2.90146 -6.29669 2.78985 3.1299 5.69411 -58.409 50.667 0.70993 5.63824 27.6516 8.89411 63.642 83.905 -0.00490006 -3.94637 -0.500219 37.9386 28.008 73.698 26.2405 28.4472 13.118 18.2167 29.0248 19.6359 0 22.4358 32.6146 28.1246 -8.63175 30.7051 32.2053 23.7634 -7.83088 26.7354 35.1526 30.0193 0.465267 -0.566793 -0.0046025 0.0240216 -0.489266 0.566817 0 0.476672 -0.566792 -0.00471533 2.41484e-006 -0.476651 0.566817 0 
